# xmcd
#
# Track frame offsets:
#	150
#	19109
#	37502
#	54715
#	71323
#	97281
#	113993
#	134300
#	152406
#	171661
#	184637
#	207316
#	224443
#
# Disc length: 3287 seconds
#
# Revision: 1
# Processed by: cddbd v1.5.2PL0 Copyright (c) Steve Scherf et al.
# Submitted via: EasyCDDAExtractor 16.0.9.1
#
DISCID=b70cd50d
DTITLE=Enzo Avitabile - Black Tarantella
DYEAR=2012
DGENRE=Blues
TTITLE0=E' Ancora Tiempo -  feat. PINO DANIELE
TTITLE1=Aizamm' Na Mana - feat. RAIZ
TTITLE2=Gerardo Nuvola 'E Povere - feat. FRANCESCO GUCCINI
TTITLE3=Mane E Mane - feat. DABY TOURE'
TTITLE4=Elì Elì - feat. ENRIQUE and SOLEA MORENTE
TTITLE5=Nun E' Giusto - feat. IDIR
TTITLE6=Suonn' A Pastell' - feat. BOB GELDOF
TTITLE7=Mai Cchiù - feat. CO' SANG
TTITLE8='A Nnomme 'E Dio
TTITLE9=No E' No - feat. FRANCO BATTIATO
TTITLE10=E 'A Maronn' Accumparett' In Africa - feat. DAVID CROSBY
TTITLE11=Nun Vulimm' 'A Luna
TTITLE12=Soul Express - feat. TOUMANI DIABATE' e MAURO PAGANI
EXTD=YEAR: 2012
EXTT0=
EXTT1=
EXTT2=
EXTT3=
EXTT4=
EXTT5=
EXTT6=
EXTT7=
EXTT8=
EXTT9=
EXTT10=
EXTT11=
EXTT12=
PLAYORDER=
